<svg xmlns="http://www.w3.org/2000/svg" xmlns:xlink="http://www.w3.org/1999/xlink" width="24" height="24" viewBox="0 0 24 24">
    <defs>
        <path id="a" d="M20.043 12.76a8.95 8.95 0 0 0-.516-1.242l-2.454 1.106c.217.393.39.81.517 1.242l2.453-1.106zm-12.572-.904c.271-.354.579-.674.918-.957l-1.89-1.968a8.666 8.666 0 0 0-.919.957l1.891 1.968zm1.714-1.514c.38-.221.781-.396 1.198-.523L9.35 7.25a8.228 8.228 0 0 0-1.2.524l1.035 2.568zm-2.759 3.615c.121-.435.287-.854.498-1.25l-2.47-1.066a9.09 9.09 0 0 0-.498 1.25l2.47 1.066zm9.434-6.2a8.296 8.296 0 0 0-1.2-.519l-1.023 2.573c.418.125.82.299 1.2.519l1.023-2.573zm2.601 2.131a8.654 8.654 0 0 0-.918-.957l-1.891 1.968c.34.283.648.604.919.957l1.89-1.968zm-5.791-3.06a8.414 8.414 0 0 0-1.298 0v2.784a5.667 5.667 0 0 1 1.298 0V6.828zM24 15c0-6.627-5.373-12-12-12S0 8.373 0 15c0 2.583.816 5.042 2.205 7h19.59C23.184 20.042 24 17.583 24 15zm-9.08 5a2.895 2.895 0 0 0-1.496-2.522l-1.402-6.571-1.402 6.571A2.897 2.897 0 0 0 9.124 20H3.303A10.247 10.247 0 0 1 2 15C2 9.486 6.486 5 12 5s10 4.486 10 10c0 1.758-.458 3.5-1.303 5H14.92z"/>
    </defs>
    <g fill="none" fill-rule="evenodd">
        <mask id="b" fill="#fff">
            <use xlink:href="#a"/>
        </mask>
        <use fill="#000" fill-rule="nonzero" xlink:href="#a"/>
        <g fill="#1A1A1A" mask="url(#b)">
            <path d="M0 0h24v24H0z"/>
        </g>
    </g>
</svg>
